# xmcd
#
# Track frame offsets: 
#        150
#        17284
#        39684
#        57242
#        75149
#        92241
#        115860
#        133265
#        145599
#        165749
#        182068
#        200525
#        222653
#
# Disc length: 3249 seconds
#
# Revision: 0
# Processed by: cddbd v1.5.2PL0 Copyright (c) Steve Scherf et al.
# Submitted via: ExactAudioCopy v1.3
#
DISCID=b00caf0d
DTITLE=Zed Mitchell - Springtime In Paris
DYEAR=2007
DGENRE=Blues Rock
TTITLE0=Money For My Blues
TTITLE1=Springtime In Paris
TTITLE2=Lonely Just Like Me
TTITLE3=Maybe
TTITLE4=Good Lookin' Man
TTITLE5=I'm A River
TTITLE6=Gonna Keep You Satisfied
TTITLE7=She Don't Love Me Anymore
TTITLE8=Lonely Man
TTITLE9=Fool Forever
TTITLE10=King Of The Blues
TTITLE11=Dreamer
TTITLE12=What's Life
EXTD=
EXTT0=
EXTT1=
EXTT2=
EXTT3=
EXTT4=
EXTT5=
EXTT6=
EXTT7=
EXTT8=
EXTT9=
EXTT10=
EXTT11=
EXTT12=
PLAYORDER=
